<mxfile host="65bd71144e">
    <diagram id="XiM9994bdrITnqt8v0Vg" name="Page-1">
        <mxGraphModel dx="978" dy="356" grid="1" gridSize="10" guides="1" tooltips="1" connect="1" arrows="1" fold="1" page="1" pageScale="1" pageWidth="827" pageHeight="1169" math="0" shadow="0">
            <root>
                <mxCell id="0"/>
                <mxCell id="1" parent="0"/>
                <mxCell id="2" value="Aluno" style="whiteSpace=wrap;html=1;align=center;rounded=1;" parent="1" vertex="1">
                    <mxGeometry x="150" y="80" width="100" height="40" as="geometry"/>
                </mxCell>
                <mxCell id="3" value="Curso" style="whiteSpace=wrap;html=1;align=center;rounded=1;" parent="1" vertex="1">
                    <mxGeometry x="550" y="80" width="100" height="40" as="geometry"/>
                </mxCell>
                <mxCell id="4" value="Turma" style="whiteSpace=wrap;html=1;align=center;rounded=1;" parent="1" vertex="1">
                    <mxGeometry x="350" y="220" width="100" height="40" as="geometry"/>
                </mxCell>
                <mxCell id="5" value="Professor" style="whiteSpace=wrap;html=1;align=center;rounded=1;" parent="1" vertex="1">
                    <mxGeometry x="350" y="410" width="100" height="40" as="geometry"/>
                </mxCell>
                <mxCell id="14" value="" style="endArrow=none;html=1;rounded=1;hachureGap=4;fontFamily=Architects Daughter;fontSource=https%3A%2F%2Ffonts.googleapis.com%2Fcss%3Ffamily%3DArchitects%2BDaughter;fontSize=16;exitX=0.5;exitY=0;exitDx=0;exitDy=0;" parent="1" source="5" edge="1">
                    <mxGeometry relative="1" as="geometry">
                        <mxPoint x="320" y="320" as="sourcePoint"/>
                        <mxPoint x="400" y="260" as="targetPoint"/>
                    </mxGeometry>
                </mxCell>
                <mxCell id="15" value="N" style="resizable=0;html=1;align=right;verticalAlign=bottom;hachureGap=4;fontFamily=Architects Daughter;fontSource=https%3A%2F%2Ffonts.googleapis.com%2Fcss%3Ffamily%3DArchitects%2BDaughter;fontSize=20;rounded=1;" parent="14" connectable="0" vertex="1">
                    <mxGeometry x="1" relative="1" as="geometry">
                        <mxPoint x="-10" y="30" as="offset"/>
                    </mxGeometry>
                </mxCell>
                <mxCell id="16" value="" style="endArrow=none;html=1;rounded=0;edgeStyle=orthogonalEdgeStyle;entryX=0.5;entryY=1;entryDx=0;entryDy=0;" parent="1" target="3" edge="1">
                    <mxGeometry relative="1" as="geometry">
                        <mxPoint x="450" y="240" as="sourcePoint"/>
                        <mxPoint x="600" y="170" as="targetPoint"/>
                    </mxGeometry>
                </mxCell>
                <mxCell id="17" value="N" style="resizable=0;html=1;align=right;verticalAlign=bottom;" parent="16" connectable="0" vertex="1">
                    <mxGeometry x="1" relative="1" as="geometry">
                        <mxPoint x="-130" y="120" as="offset"/>
                    </mxGeometry>
                </mxCell>
                <mxCell id="21" value="" style="endArrow=none;html=1;rounded=0;edgeStyle=orthogonalEdgeStyle;entryX=0.5;entryY=1;entryDx=0;entryDy=0;" parent="1" target="2" edge="1">
                    <mxGeometry relative="1" as="geometry">
                        <mxPoint x="350" y="240" as="sourcePoint"/>
                        <mxPoint x="160" y="140" as="targetPoint"/>
                    </mxGeometry>
                </mxCell>
                <mxCell id="22" value="M" style="resizable=0;html=1;align=left;verticalAlign=bottom;" parent="21" connectable="0" vertex="1">
                    <mxGeometry x="-1" relative="1" as="geometry">
                        <mxPoint x="-170" y="-100" as="offset"/>
                    </mxGeometry>
                </mxCell>
                <mxCell id="23" value="N" style="resizable=0;html=1;align=right;verticalAlign=bottom;" parent="21" connectable="0" vertex="1">
                    <mxGeometry x="1" relative="1" as="geometry">
                        <mxPoint x="140" y="120" as="offset"/>
                    </mxGeometry>
                </mxCell>
            </root>
        </mxGraphModel>
    </diagram>
    <diagram id="ZTo1QACMpc_myDDpbZ8y" name="Page-2">
        <mxGraphModel dx="978" dy="1525" grid="1" gridSize="10" guides="1" tooltips="1" connect="1" arrows="1" fold="1" page="1" pageScale="1" pageWidth="827" pageHeight="1169" math="0" shadow="0">
            <root>
                <mxCell id="0"/>
                <mxCell id="1" parent="0"/>
                <mxCell id="KWIV7B8PWxM3VqIp-cK5-1" value="Aluno" style="swimlane;fontStyle=0;childLayout=stackLayout;horizontal=1;startSize=26;fillColor=none;horizontalStack=0;resizeParent=1;resizeParentMax=0;resizeLast=0;collapsible=1;marginBottom=0;" parent="1" vertex="1">
                    <mxGeometry x="120" y="40" width="160" height="364" as="geometry"/>
                </mxCell>
                <mxCell id="KWIV7B8PWxM3VqIp-cK5-2" value="_id: ObjectId" style="text;strokeColor=none;fillColor=none;align=left;verticalAlign=top;spacingLeft=4;spacingRight=4;overflow=hidden;rotatable=0;points=[[0,0.5],[1,0.5]];portConstraint=eastwest;" parent="KWIV7B8PWxM3VqIp-cK5-1" vertex="1">
                    <mxGeometry y="26" width="160" height="26" as="geometry"/>
                </mxCell>
                <mxCell id="KWIV7B8PWxM3VqIp-cK5-3" value="nome: String" style="text;strokeColor=none;fillColor=none;align=left;verticalAlign=top;spacingLeft=4;spacingRight=4;overflow=hidden;rotatable=0;points=[[0,0.5],[1,0.5]];portConstraint=eastwest;" parent="KWIV7B8PWxM3VqIp-cK5-1" vertex="1">
                    <mxGeometry y="52" width="160" height="26" as="geometry"/>
                </mxCell>
                <mxCell id="KWIV7B8PWxM3VqIp-cK5-4" value="cpf: String" style="text;strokeColor=none;fillColor=none;align=left;verticalAlign=top;spacingLeft=4;spacingRight=4;overflow=hidden;rotatable=0;points=[[0,0.5],[1,0.5]];portConstraint=eastwest;" parent="KWIV7B8PWxM3VqIp-cK5-1" vertex="1">
                    <mxGeometry y="78" width="160" height="26" as="geometry"/>
                </mxCell>
                <mxCell id="KWIV7B8PWxM3VqIp-cK5-19" value="dataNascimento: DateTime" style="text;strokeColor=none;fillColor=none;align=left;verticalAlign=top;spacingLeft=4;spacingRight=4;overflow=hidden;rotatable=0;points=[[0,0.5],[1,0.5]];portConstraint=eastwest;" parent="KWIV7B8PWxM3VqIp-cK5-1" vertex="1">
                    <mxGeometry y="104" width="160" height="26" as="geometry"/>
                </mxCell>
                <mxCell id="KWIV7B8PWxM3VqIp-cK5-17" value="logradouro: String" style="text;strokeColor=none;fillColor=none;align=left;verticalAlign=top;spacingLeft=4;spacingRight=4;overflow=hidden;rotatable=0;points=[[0,0.5],[1,0.5]];portConstraint=eastwest;" parent="KWIV7B8PWxM3VqIp-cK5-1" vertex="1">
                    <mxGeometry y="130" width="160" height="26" as="geometry"/>
                </mxCell>
                <mxCell id="KWIV7B8PWxM3VqIp-cK5-20" value="numImovel: String" style="text;strokeColor=none;fillColor=none;align=left;verticalAlign=top;spacingLeft=4;spacingRight=4;overflow=hidden;rotatable=0;points=[[0,0.5],[1,0.5]];portConstraint=eastwest;" parent="KWIV7B8PWxM3VqIp-cK5-1" vertex="1">
                    <mxGeometry y="156" width="160" height="26" as="geometry"/>
                </mxCell>
                <mxCell id="KWIV7B8PWxM3VqIp-cK5-21" value="complemento: String?" style="text;strokeColor=none;fillColor=none;align=left;verticalAlign=top;spacingLeft=4;spacingRight=4;overflow=hidden;rotatable=0;points=[[0,0.5],[1,0.5]];portConstraint=eastwest;" parent="KWIV7B8PWxM3VqIp-cK5-1" vertex="1">
                    <mxGeometry y="182" width="160" height="26" as="geometry"/>
                </mxCell>
                <mxCell id="KWIV7B8PWxM3VqIp-cK5-22" value="bairro: String" style="text;strokeColor=none;fillColor=none;align=left;verticalAlign=top;spacingLeft=4;spacingRight=4;overflow=hidden;rotatable=0;points=[[0,0.5],[1,0.5]];portConstraint=eastwest;" parent="KWIV7B8PWxM3VqIp-cK5-1" vertex="1">
                    <mxGeometry y="208" width="160" height="26" as="geometry"/>
                </mxCell>
                <mxCell id="KWIV7B8PWxM3VqIp-cK5-23" value="municipio: String" style="text;strokeColor=none;fillColor=none;align=left;verticalAlign=top;spacingLeft=4;spacingRight=4;overflow=hidden;rotatable=0;points=[[0,0.5],[1,0.5]];portConstraint=eastwest;" parent="KWIV7B8PWxM3VqIp-cK5-1" vertex="1">
                    <mxGeometry y="234" width="160" height="26" as="geometry"/>
                </mxCell>
                <mxCell id="KWIV7B8PWxM3VqIp-cK5-24" value="uf: String" style="text;strokeColor=none;fillColor=none;align=left;verticalAlign=top;spacingLeft=4;spacingRight=4;overflow=hidden;rotatable=0;points=[[0,0.5],[1,0.5]];portConstraint=eastwest;" parent="KWIV7B8PWxM3VqIp-cK5-1" vertex="1">
                    <mxGeometry y="260" width="160" height="26" as="geometry"/>
                </mxCell>
                <mxCell id="KWIV7B8PWxM3VqIp-cK5-25" value="email: String" style="text;strokeColor=none;fillColor=none;align=left;verticalAlign=top;spacingLeft=4;spacingRight=4;overflow=hidden;rotatable=0;points=[[0,0.5],[1,0.5]];portConstraint=eastwest;" parent="KWIV7B8PWxM3VqIp-cK5-1" vertex="1">
                    <mxGeometry y="286" width="160" height="26" as="geometry"/>
                </mxCell>
                <mxCell id="gBzbx5Ki2Stv-tpEQmLx-7" value="telefone: String&#10;" style="text;strokeColor=none;fillColor=none;align=left;verticalAlign=top;spacingLeft=4;spacingRight=4;overflow=hidden;rotatable=0;points=[[0,0.5],[1,0.5]];portConstraint=eastwest;" parent="KWIV7B8PWxM3VqIp-cK5-1" vertex="1">
                    <mxGeometry y="312" width="160" height="26" as="geometry"/>
                </mxCell>
                <mxCell id="KWIV7B8PWxM3VqIp-cK5-26" value="turmas: Turma[]" style="text;strokeColor=none;fillColor=none;align=left;verticalAlign=top;spacingLeft=4;spacingRight=4;overflow=hidden;rotatable=0;points=[[0,0.5],[1,0.5]];portConstraint=eastwest;" parent="KWIV7B8PWxM3VqIp-cK5-1" vertex="1">
                    <mxGeometry y="338" width="160" height="26" as="geometry"/>
                </mxCell>
                <mxCell id="KWIV7B8PWxM3VqIp-cK5-5" value="Curso" style="swimlane;fontStyle=0;childLayout=stackLayout;horizontal=1;startSize=26;fillColor=none;horizontalStack=0;resizeParent=1;resizeParentMax=0;resizeLast=0;collapsible=1;marginBottom=0;" parent="1" vertex="1">
                    <mxGeometry x="640" y="40" width="160" height="182" as="geometry"/>
                </mxCell>
                <mxCell id="KWIV7B8PWxM3VqIp-cK5-39" value="_id: ObjectId" style="text;strokeColor=none;fillColor=none;align=left;verticalAlign=top;spacingLeft=4;spacingRight=4;overflow=hidden;rotatable=0;points=[[0,0.5],[1,0.5]];portConstraint=eastwest;" parent="KWIV7B8PWxM3VqIp-cK5-5" vertex="1">
                    <mxGeometry y="26" width="160" height="26" as="geometry"/>
                </mxCell>
                <mxCell id="KWIV7B8PWxM3VqIp-cK5-41" value="nome: String" style="text;strokeColor=none;fillColor=none;align=left;verticalAlign=top;spacingLeft=4;spacingRight=4;overflow=hidden;rotatable=0;points=[[0,0.5],[1,0.5]];portConstraint=eastwest;" parent="KWIV7B8PWxM3VqIp-cK5-5" vertex="1">
                    <mxGeometry y="52" width="160" height="26" as="geometry"/>
                </mxCell>
                <mxCell id="KWIV7B8PWxM3VqIp-cK5-8" value="nivel: String" style="text;strokeColor=none;fillColor=none;align=left;verticalAlign=top;spacingLeft=4;spacingRight=4;overflow=hidden;rotatable=0;points=[[0,0.5],[1,0.5]];portConstraint=eastwest;" parent="KWIV7B8PWxM3VqIp-cK5-5" vertex="1">
                    <mxGeometry y="78" width="160" height="26" as="geometry"/>
                </mxCell>
                <mxCell id="KWIV7B8PWxM3VqIp-cK5-42" value="area: String" style="text;strokeColor=none;fillColor=none;align=left;verticalAlign=top;spacingLeft=4;spacingRight=4;overflow=hidden;rotatable=0;points=[[0,0.5],[1,0.5]];portConstraint=eastwest;" parent="KWIV7B8PWxM3VqIp-cK5-5" vertex="1">
                    <mxGeometry y="104" width="160" height="26" as="geometry"/>
                </mxCell>
                <mxCell id="E9Kc1XTEH-3TeWvTuUS8-2" value="valorTotal: Float" style="text;strokeColor=none;fillColor=none;align=left;verticalAlign=top;spacingLeft=4;spacingRight=4;overflow=hidden;rotatable=0;points=[[0,0.5],[1,0.5]];portConstraint=eastwest;" vertex="1" parent="KWIV7B8PWxM3VqIp-cK5-5">
                    <mxGeometry y="130" width="160" height="26" as="geometry"/>
                </mxCell>
                <mxCell id="E9Kc1XTEH-3TeWvTuUS8-3" value="turmas: Turmas[]" style="text;strokeColor=none;fillColor=none;align=left;verticalAlign=top;spacingLeft=4;spacingRight=4;overflow=hidden;rotatable=0;points=[[0,0.5],[1,0.5]];portConstraint=eastwest;" vertex="1" parent="KWIV7B8PWxM3VqIp-cK5-5">
                    <mxGeometry y="156" width="160" height="26" as="geometry"/>
                </mxCell>
                <mxCell id="KWIV7B8PWxM3VqIp-cK5-9" value="Turma" style="swimlane;fontStyle=0;childLayout=stackLayout;horizontal=1;startSize=26;fillColor=none;horizontalStack=0;resizeParent=1;resizeParentMax=0;resizeLast=0;collapsible=1;marginBottom=0;" parent="1" vertex="1">
                    <mxGeometry x="380" y="280" width="140" height="234" as="geometry"/>
                </mxCell>
                <mxCell id="KWIV7B8PWxM3VqIp-cK5-48" value="_id: ObjectId" style="text;strokeColor=none;fillColor=none;align=left;verticalAlign=top;spacingLeft=4;spacingRight=4;overflow=hidden;rotatable=0;points=[[0,0.5],[1,0.5]];portConstraint=eastwest;" parent="KWIV7B8PWxM3VqIp-cK5-9" vertex="1">
                    <mxGeometry y="26" width="140" height="26" as="geometry"/>
                </mxCell>
                <mxCell id="gBzbx5Ki2Stv-tpEQmLx-10" value="cursoId: ObjectId" style="text;strokeColor=none;fillColor=none;align=left;verticalAlign=top;spacingLeft=4;spacingRight=4;overflow=hidden;rotatable=0;points=[[0,0.5],[1,0.5]];portConstraint=eastwest;" parent="KWIV7B8PWxM3VqIp-cK5-9" vertex="1">
                    <mxGeometry y="52" width="140" height="26" as="geometry"/>
                </mxCell>
                <mxCell id="gBzbx5Ki2Stv-tpEQmLx-11" value="professorId: ObjectId?" style="text;strokeColor=none;fillColor=none;align=left;verticalAlign=top;spacingLeft=4;spacingRight=4;overflow=hidden;rotatable=0;points=[[0,0.5],[1,0.5]];portConstraint=eastwest;" parent="KWIV7B8PWxM3VqIp-cK5-9" vertex="1">
                    <mxGeometry y="78" width="140" height="26" as="geometry"/>
                </mxCell>
                <mxCell id="KWIV7B8PWxM3VqIp-cK5-11" value="diaSemana: String" style="text;strokeColor=none;fillColor=none;align=left;verticalAlign=top;spacingLeft=4;spacingRight=4;overflow=hidden;rotatable=0;points=[[0,0.5],[1,0.5]];portConstraint=eastwest;" parent="KWIV7B8PWxM3VqIp-cK5-9" vertex="1">
                    <mxGeometry y="104" width="140" height="26" as="geometry"/>
                </mxCell>
                <mxCell id="KWIV7B8PWxM3VqIp-cK5-12" value="horaInicial: Int" style="text;strokeColor=none;fillColor=none;align=left;verticalAlign=top;spacingLeft=4;spacingRight=4;overflow=hidden;rotatable=0;points=[[0,0.5],[1,0.5]];portConstraint=eastwest;" parent="KWIV7B8PWxM3VqIp-cK5-9" vertex="1">
                    <mxGeometry y="130" width="140" height="26" as="geometry"/>
                </mxCell>
                <mxCell id="KWIV7B8PWxM3VqIp-cK5-50" value="horaFinal: Int" style="text;strokeColor=none;fillColor=none;align=left;verticalAlign=top;spacingLeft=4;spacingRight=4;overflow=hidden;rotatable=0;points=[[0,0.5],[1,0.5]];portConstraint=eastwest;" parent="KWIV7B8PWxM3VqIp-cK5-9" vertex="1">
                    <mxGeometry y="156" width="140" height="26" as="geometry"/>
                </mxCell>
                <mxCell id="E9Kc1XTEH-3TeWvTuUS8-4" value="ativa: Boolean" style="text;strokeColor=none;fillColor=none;align=left;verticalAlign=top;spacingLeft=4;spacingRight=4;overflow=hidden;rotatable=0;points=[[0,0.5],[1,0.5]];portConstraint=eastwest;" vertex="1" parent="KWIV7B8PWxM3VqIp-cK5-9">
                    <mxGeometry y="182" width="140" height="26" as="geometry"/>
                </mxCell>
                <mxCell id="gBzbx5Ki2Stv-tpEQmLx-9" value="alunos:Aluno[]" style="text;strokeColor=none;fillColor=none;align=left;verticalAlign=top;spacingLeft=4;spacingRight=4;overflow=hidden;rotatable=0;points=[[0,0.5],[1,0.5]];portConstraint=eastwest;" parent="KWIV7B8PWxM3VqIp-cK5-9" vertex="1">
                    <mxGeometry y="208" width="140" height="26" as="geometry"/>
                </mxCell>
                <mxCell id="KWIV7B8PWxM3VqIp-cK5-13" value="Professor" style="swimlane;fontStyle=0;childLayout=stackLayout;horizontal=1;startSize=26;fillColor=none;horizontalStack=0;resizeParent=1;resizeParentMax=0;resizeLast=0;collapsible=1;marginBottom=0;" parent="1" vertex="1">
                    <mxGeometry x="640" y="400" width="160" height="234" as="geometry"/>
                </mxCell>
                <mxCell id="KWIV7B8PWxM3VqIp-cK5-27" value="_id: ObjectId" style="text;strokeColor=none;fillColor=none;align=left;verticalAlign=top;spacingLeft=4;spacingRight=4;overflow=hidden;rotatable=0;points=[[0,0.5],[1,0.5]];portConstraint=eastwest;" parent="KWIV7B8PWxM3VqIp-cK5-13" vertex="1">
                    <mxGeometry y="26" width="160" height="26" as="geometry"/>
                </mxCell>
                <mxCell id="KWIV7B8PWxM3VqIp-cK5-43" value="nome: String" style="text;strokeColor=none;fillColor=none;align=left;verticalAlign=top;spacingLeft=4;spacingRight=4;overflow=hidden;rotatable=0;points=[[0,0.5],[1,0.5]];portConstraint=eastwest;" parent="KWIV7B8PWxM3VqIp-cK5-13" vertex="1">
                    <mxGeometry y="52" width="160" height="26" as="geometry"/>
                </mxCell>
                <mxCell id="KWIV7B8PWxM3VqIp-cK5-44" value="formacao: String" style="text;strokeColor=none;fillColor=none;align=left;verticalAlign=top;spacingLeft=4;spacingRight=4;overflow=hidden;rotatable=0;points=[[0,0.5],[1,0.5]];portConstraint=eastwest;" parent="KWIV7B8PWxM3VqIp-cK5-13" vertex="1">
                    <mxGeometry y="78" width="160" height="26" as="geometry"/>
                </mxCell>
                <mxCell id="KWIV7B8PWxM3VqIp-cK5-45" value="cpf: String" style="text;strokeColor=none;fillColor=none;align=left;verticalAlign=top;spacingLeft=4;spacingRight=4;overflow=hidden;rotatable=0;points=[[0,0.5],[1,0.5]];portConstraint=eastwest;" parent="KWIV7B8PWxM3VqIp-cK5-13" vertex="1">
                    <mxGeometry y="104" width="160" height="26" as="geometry"/>
                </mxCell>
                <mxCell id="KWIV7B8PWxM3VqIp-cK5-46" value="dataNascimento: DateTime" style="text;strokeColor=none;fillColor=none;align=left;verticalAlign=top;spacingLeft=4;spacingRight=4;overflow=hidden;rotatable=0;points=[[0,0.5],[1,0.5]];portConstraint=eastwest;" parent="KWIV7B8PWxM3VqIp-cK5-13" vertex="1">
                    <mxGeometry y="130" width="160" height="26" as="geometry"/>
                </mxCell>
                <mxCell id="KWIV7B8PWxM3VqIp-cK5-37" value="email: String" style="text;strokeColor=none;fillColor=none;align=left;verticalAlign=top;spacingLeft=4;spacingRight=4;overflow=hidden;rotatable=0;points=[[0,0.5],[1,0.5]];portConstraint=eastwest;" parent="KWIV7B8PWxM3VqIp-cK5-13" vertex="1">
                    <mxGeometry y="156" width="160" height="26" as="geometry"/>
                </mxCell>
                <mxCell id="E9Kc1XTEH-3TeWvTuUS8-1" value="telefone: String" style="text;strokeColor=none;fillColor=none;align=left;verticalAlign=top;spacingLeft=4;spacingRight=4;overflow=hidden;rotatable=0;points=[[0,0.5],[1,0.5]];portConstraint=eastwest;" vertex="1" parent="KWIV7B8PWxM3VqIp-cK5-13">
                    <mxGeometry y="182" width="160" height="26" as="geometry"/>
                </mxCell>
                <mxCell id="KWIV7B8PWxM3VqIp-cK5-47" value="turmas: Turma[]" style="text;strokeColor=none;fillColor=none;align=left;verticalAlign=top;spacingLeft=4;spacingRight=4;overflow=hidden;rotatable=0;points=[[0,0.5],[1,0.5]];portConstraint=eastwest;" parent="KWIV7B8PWxM3VqIp-cK5-13" vertex="1">
                    <mxGeometry y="208" width="160" height="26" as="geometry"/>
                </mxCell>
                <mxCell id="KWIV7B8PWxM3VqIp-cK5-57" value="" style="endArrow=diamondThin;endFill=1;endSize=24;html=1;entryX=0.5;entryY=0;entryDx=0;entryDy=0;edgeStyle=orthogonalEdgeStyle;exitX=0.207;exitY=0;exitDx=0;exitDy=0;exitPerimeter=0;" parent="1" source="KWIV7B8PWxM3VqIp-cK5-9" target="KWIV7B8PWxM3VqIp-cK5-5" edge="1">
                    <mxGeometry width="160" relative="1" as="geometry">
                        <mxPoint x="410" y="270" as="sourcePoint"/>
                        <mxPoint x="710" y="290" as="targetPoint"/>
                        <Array as="points">
                            <mxPoint x="440" y="280"/>
                            <mxPoint x="440" y="30"/>
                            <mxPoint x="720" y="30"/>
                        </Array>
                    </mxGeometry>
                </mxCell>
                <mxCell id="9x6Yc-f1m53UPp1pvnC5-4" value="" style="endArrow=diamondThin;endFill=0;endSize=24;html=1;strokeColor=default;edgeStyle=orthogonalEdgeStyle;entryX=0.25;entryY=1;entryDx=0;entryDy=0;" parent="1" source="KWIV7B8PWxM3VqIp-cK5-1" edge="1">
                    <mxGeometry width="160" relative="1" as="geometry">
                        <mxPoint x="254" y="250" as="sourcePoint"/>
                        <mxPoint x="415" y="280" as="targetPoint"/>
                        <Array as="points">
                            <mxPoint x="254" y="20"/>
                            <mxPoint x="415" y="20"/>
                        </Array>
                    </mxGeometry>
                </mxCell>
                <mxCell id="9x6Yc-f1m53UPp1pvnC5-6" value="0..*" style="text;html=1;strokeColor=none;fillColor=none;align=center;verticalAlign=middle;whiteSpace=wrap;rounded=0;" parent="1" vertex="1">
                    <mxGeometry x="320" y="250" width="60" height="30" as="geometry"/>
                </mxCell>
                <mxCell id="9x6Yc-f1m53UPp1pvnC5-7" value="0..*&lt;br&gt;" style="text;html=1;strokeColor=none;fillColor=none;align=center;verticalAlign=middle;whiteSpace=wrap;rounded=0;" parent="1" vertex="1">
                    <mxGeometry x="200" y="10" width="60" height="30" as="geometry"/>
                </mxCell>
                <mxCell id="gBzbx5Ki2Stv-tpEQmLx-1" value="0..*" style="text;html=1;strokeColor=none;fillColor=none;align=center;verticalAlign=middle;whiteSpace=wrap;rounded=0;" parent="1" vertex="1">
                    <mxGeometry x="420" y="220" width="60" height="30" as="geometry"/>
                </mxCell>
                <mxCell id="gBzbx5Ki2Stv-tpEQmLx-2" value="1" style="text;html=1;strokeColor=none;fillColor=none;align=center;verticalAlign=middle;whiteSpace=wrap;rounded=0;" parent="1" vertex="1">
                    <mxGeometry x="720" y="10" width="60" height="30" as="geometry"/>
                </mxCell>
                <mxCell id="gBzbx5Ki2Stv-tpEQmLx-4" value="" style="endArrow=diamondThin;endFill=0;endSize=24;html=1;edgeStyle=orthogonalEdgeStyle;exitX=0.5;exitY=0;exitDx=0;exitDy=0;" parent="1" source="KWIV7B8PWxM3VqIp-cK5-13" edge="1">
                    <mxGeometry width="160" relative="1" as="geometry">
                        <mxPoint x="650" y="270" as="sourcePoint"/>
                        <mxPoint x="490" y="280" as="targetPoint"/>
                        <Array as="points">
                            <mxPoint x="720" y="240"/>
                            <mxPoint x="490" y="240"/>
                        </Array>
                    </mxGeometry>
                </mxCell>
                <mxCell id="gBzbx5Ki2Stv-tpEQmLx-5" value="0..*" style="text;html=1;strokeColor=none;fillColor=none;align=center;verticalAlign=middle;whiteSpace=wrap;rounded=0;" parent="1" vertex="1">
                    <mxGeometry x="480" y="250" width="60" height="30" as="geometry"/>
                </mxCell>
                <mxCell id="gBzbx5Ki2Stv-tpEQmLx-6" value="0..1" style="text;html=1;strokeColor=none;fillColor=none;align=center;verticalAlign=middle;whiteSpace=wrap;rounded=0;" parent="1" vertex="1">
                    <mxGeometry x="660" y="370" width="60" height="30" as="geometry"/>
                </mxCell>
            </root>
        </mxGraphModel>
    </diagram>
</mxfile>